<?xml version="1.0" encoding="utf-8"?>
<!-- Generator: Adobe Illustrator 26.0.1, SVG Export Plug-In . SVG Version: 6.00 Build 0)  -->
<svg version="1.1"
	id="Layer_2_00000029732256470167689550000004855415116907614605_"
	xmlns="http://www.w3.org/2000/svg"
	x="0px"
	y="0px"
	viewBox="0 0 299.9 371.4"
	style="enable-background:new 0 0 299.9 371.4;"
	xml:space="preserve">
<style type="text/css">
	.st0{fill:#FF5A24;}
</style>
<path class="st0" d="M164.8,235.4l135.1-78c-0.3-5.4-0.9-10.8-1.9-16.1l-148.1,85.5L1.8,141.2C0.9,146.6,0.3,152,0,157.4l135.1,78
	l-48.3,27.9c-0.3,2.3-0.4,4.6-0.4,6.9c0,3.3,0.3,6.7,0.8,10l62.8-36.2l62.8,36.2c0.5-3.3,0.8-6.7,0.8-10c0-2.3-0.1-4.6-0.4-6.9
	L164.8,235.4z"/>
<path class="st0" d="M150,333.7L150,333.7l-25-58.2l-33.6,19.4c2,4.6,4.4,8.9,7.4,12.9l19.1-11l32,74.6l26.1-60.8l-13-7.5L150,333.7
	z"/>
<path class="st0" d="M162.6,268.5L162.6,268.5c-0.1-0.8-0.2-1.5-0.4-2.2v-0.1c-0.2-0.7-0.5-1.4-0.8-2l-0.1-0.2
	c-0.3-0.6-0.7-1.2-1.1-1.7l-0.2-0.2c-0.4-0.5-0.9-1-1.4-1.5l-0.2-0.2c-0.5-0.4-1-0.8-1.6-1.2c-0.1-0.1-0.2-0.1-0.3-0.2
	c-0.6-0.4-1.2-0.7-1.8-0.9l-0.2-0.1c-0.7-0.3-1.4-0.5-2.1-0.6h-0.2c-0.8-0.1-1.5-0.2-2.3-0.2c-7,0-12.8,5.7-12.8,12.8
	s5.7,12.8,12.8,12.8c0.5,0,0.9,0,1.4-0.1h0.2c0.4,0,0.8-0.1,1.2-0.2h0.1c0.8-0.2,1.7-0.5,2.5-0.8l45.9,26.5c3-4,5.4-8.3,7.4-12.9
	L162.6,268.5z"/>
<path class="st0" d="M294.6,126.1c-1.4-4.9-3-9.7-4.8-14.4L150,192.4L10.1,111.7c-1.9,4.7-3.5,9.5-4.8,14.4L150,209.6L294.6,126.1z"
	/>
<path class="st0" d="M144.1,128.8l16-4l-5.7,9.4l19.4,27.3l97.8-56.5l0,0l12-6.9l0,0l0,0c-2.3-4.4-4.7-8.7-7.4-12.9l0,0
	c-2.7-4.2-5.6-8.2-8.7-12.1l27.2-15.7c-1.4-4.9-3-9.7-4.9-14.4l-32.4,18.7L245,68.9c3.7,3.5,7.1,7.3,10.4,11.2
	c3.2,3.9,6.1,7.9,8.8,12.1l-86.1,49.7l-5.9-8.3l19.3-32l-76.4,19.3l25.6,14.8L144.1,128.8z"/>
<path class="st0" d="M23.8,85.2L23.8,85.2c-2.7,4.2-5.2,8.5-7.5,12.9l121,69.8c0,0.2,0.1,0.3,0.1,0.5c0.1,0.5,0.2,1,0.3,1.5
	c0,0.2,0.1,0.4,0.1,0.6c0.2,0.6,0.4,1.2,0.7,1.8c0,0.1,0.1,0.2,0.1,0.3c0.3,0.7,0.7,1.3,1.2,1.9l0,0c4.3,5.6,12.3,6.7,17.9,2.5
	c5.6-4.3,6.7-12.3,2.5-17.9c-3.6-4.7-10-6.4-15.4-3.9l-109-62.9c2.7-4.2,5.7-8.2,8.9-12.1c3.2-3.9,6.7-7.7,10.4-11.2L10.1,43
	c-1.9,4.7-3.5,9.5-4.8,14.3L32.5,73C29.4,77,26.5,81,23.8,85.2"/>
</svg>
